<svg xmlns="http://www.w3.org/2000/svg" viewBox="0 0 128 90"><path fill="#207AB3" d="M76.7 90v-6.6C87 80 95.1 74.6 100.9 67.3c5.9-7.3 8.8-14.9 8.8-22.8c0-1.7-0.3-3-0.9-3.8 c-0.4-0.5-0.8-0.8-1.3-0.8c-0.5 0-1.2 0.3-2.2 0.9c-3.2 2.1-7.2 3.1-12.1 3.1c-5.7 0-10.7-2.1-15-6.3c-4.4-4.2-6.5-9.1-6.5-14.9 c0-6 2.5-11.3 7.5-15.9C84.1 2.3 90.2 0 97.3 0c8.3 0 15.5 3.1 21.6 9.3c6.1 6.2 9.1 14.5 9.1 24.9c0 12.1-4.1 23-12.4 32.6 C107.4 76.4 94.4 84.2 76.7 90z M5.1 90v-6.6c10.3-3.4 18.4-8.8 24.3-16.1c5.9-7.3 8.8-14.9 8.8-22.8c0-1.7-0.3-3-0.9-3.8 c-0.4-0.5-0.8-0.8-1.3-0.8c-0.5 0-1.2 0.3-2.2 0.9c-3.2 2.1-7.2 3.1-12.1 3.1c-5.7 0-10.7-2.1-15-6.3C2.2 33.5 0 28.5 0 22.8 c0-6 2.5-11.3 7.5-15.9C12.5 2.3 18.6 0 25.7 0c8.3 0 15.5 3.1 21.6 9.3c6.1 6.2 9.1 14.5 9.1 24.9c0 12.1-4.1 23-12.4 32.6 C35.8 76.4 22.8 84.2 5.1 90z"/></svg>