<svg xmlns="http://www.w3.org/2000/svg" viewBox="0 0 128 90"><path fill="#207AB3" d="M51.3 0v6.6C41 10 32.9 15.4 27.1 22.7c-5.9 7.3-8.8 14.9-8.8 22.8c0 1.7 0.3 3 0.9 3.8 c0.4 0.5 0.8 0.8 1.3 0.8c0.5 0 1.2-0.3 2.2-0.9c3.2-2.1 7.2-3.1 12.1-3.1c5.7 0 10.7 2.1 15 6.3c4.4 4.2 6.5 9.1 6.5 14.9 c0 6-2.5 11.3-7.5 15.9c-5 4.6-11.1 6.9-18.2 6.9c-8.3 0-15.5-3.1-21.6-9.3C3 74.5 0 66.2 0 55.8c0-12.1 4.1-23 12.4-32.6 C20.6 13.6 33.6 5.8 51.3 0z M122.9 0v6.6c-10.3 3.4-18.4 8.8-24.3 16.1c-5.9 7.3-8.8 14.9-8.8 22.8c0 1.7 0.3 3 0.9 3.8 c0.4 0.5 0.8 0.8 1.3 0.8c0.5 0 1.2-0.3 2.2-0.9c3.2-2.1 7.2-3.1 12.1-3.1c5.7 0 10.7 2.1 15 6.3c4.4 4.2 6.5 9.1 6.5 14.9 c0 6-2.5 11.3-7.5 15.9c-5 4.6-11.1 6.9-18.2 6.9c-8.3 0-15.5-3.1-21.6-9.3c-6.1-6.2-9.1-14.5-9.1-24.9c0-12.1 4.1-23 12.4-32.6 C92.2 13.6 105.2 5.8 122.9 0z"/></svg>